<?xml version="1.0" encoding="utf-8"?>
<!-- Generator: Adobe Illustrator 25.3.1, SVG Export Plug-In . SVG Version: 6.00 Build 0)  -->
<svg version="1.1" id="Layer_1" xmlns="http://www.w3.org/2000/svg" xmlns:xlink="http://www.w3.org/1999/xlink" x="0px" y="0px"
	 viewBox="0 0 90 90" style="enable-background:new 0 0 90 90;" xml:space="preserve">
<style type="text/css">
	.st0{fill:#FFFFFF;}
</style>
<g>
	<path class="st0" d="M45.1,58.1c-7.8,0-10.7-3.3-13.1-9.5c-2.9-7.4-6.2-14.6-9.8-21.8c-2-4.1-0.7-6.1,3-7.7
		c13.1-5.4,26.1-5.4,39.2-0.1c4,1.6,5.2,3.8,3.1,8c-3.6,7.1-6.9,14.3-9.8,21.7C55.4,54.8,53.1,58.1,45.1,58.1z"/>
	<path class="st0" d="M17.9,31.4c4,8.8,7.6,17,11.4,25.3c1.6,3.4-0.5,3.5-2.7,3c-6.8-1.6-13.2-4.1-18.6-8.8
		c-1.8-1.6-2.3-3.2-1.2-5.7C9.2,39.8,12.7,35.4,17.9,31.4z"/>
	<path class="st0" d="M72.1,31.5c5.1,3.6,8.3,8,10.9,13.1c1.4,2.9,0.8,4.9-1.6,6.9c-5.2,4.3-11.4,6.7-17.8,8.2
		c-1.9,0.5-4.5,0.8-2.9-2.8C64.4,48.5,68.2,40.1,72.1,31.5z"/>
	<path class="st0" d="M6.3,57.5c4.9,2.9,9.3,5.4,14.3,6.7c1.9,0.5,2.2,1.6,1.2,3.1c-2,2.9-2.5,7.7-7,7.3c-4.3-0.3-5.9-4.3-7.2-7.9
		C6.7,64,5.9,61.1,6.3,57.5z"/>
	<path class="st0" d="M83.8,57.2c-0.1,5.8-1.1,10.4-4,14.4c-3.4,4.6-6.7,4.4-9.6-0.4c-0.8-1.3-1.3-2.7-2.1-3.9
		c-1.1-1.7-0.4-2.6,1.3-3.1C74.4,62.9,78.9,60.5,83.8,57.2z"/>
</g>
</svg>
